<svg width="104" height="104" viewBox="0 0 104 104" fill="none" xmlns="http://www.w3.org/2000/svg">
<path fill-rule="evenodd" clip-rule="evenodd" d="M61.4148 44.4602C59.7688 44.4602 58.9466 45.9837 58.9481 49.0306V57.4723C58.9774 57.9593 59.0428 58.4035 59.0428 58.9221C59.0428 59.6211 58.9842 60.2366 58.9481 60.8883V68.3289C58.899 69.5031 59.0726 70.6759 59.4599 71.7854C59.6167 72.1813 59.8978 72.5156 60.2609 72.738C60.624 72.9604 61.0495 73.0589 61.4734 73.0188C61.8905 73.0539 62.3065 72.9402 62.6478 72.698C62.9891 72.4557 63.2337 72.1005 63.3382 71.6952C63.6627 70.44 63.8039 69.1444 63.7576 67.8486V49.1523C63.803 47.9748 63.6614 46.7975 63.3382 45.6642C63.2038 45.2737 62.9396 44.9411 62.5896 44.7219C62.2395 44.5028 61.8248 44.4104 61.4148 44.4602ZM48.1589 33.5473C48.1902 32.9517 47.9843 32.3679 47.5862 31.9238C47.3781 31.7172 47.1288 31.5568 46.8545 31.4531C46.5802 31.3493 46.2871 31.3046 45.9943 31.3218C45.6637 31.296 45.3313 31.3419 45.02 31.4563C44.7087 31.5707 44.4257 31.7509 44.1905 31.9847C43.7666 32.487 43.5505 33.1322 43.5862 33.7885C43.6844 34.8116 43.9913 35.8037 44.4881 36.7034C44.9849 37.6032 45.661 38.3914 46.4746 39.0195L48.2424 40.7173V37.0962H48.2198L48.1589 33.5473ZM51.9921 0.0214844C41.7128 0.0232681 31.6649 3.07295 23.1189 8.78492C14.5728 14.4969 7.91248 22.6146 3.97991 32.1117C0.0473508 41.6087 -0.980787 52.0586 1.02552 62.1399C3.03183 72.2212 7.98247 81.4813 15.2515 88.7492C22.5205 96.017 31.7813 100.966 41.8631 102.971C51.9449 104.976 62.3949 103.947 71.8917 100.013C81.3884 96.0794 89.5054 89.4181 95.2164 80.8715C100.927 72.3249 103.976 62.2768 103.976 51.9978C103.975 38.2134 98.4985 24.9939 88.751 15.2471C79.0035 5.50028 65.7835 0.0243358 51.9988 0.0237379L51.9921 0.0214844ZM74.3979 65.4451C74.4439 68.2734 74.2424 71.1004 73.7959 73.8936C73.4939 75.8894 72.5736 77.7402 71.1646 79.1855C70.3154 79.9123 69.3312 80.4644 68.2684 80.8103C67.2055 81.1562 66.0849 81.289 64.9706 81.2012C63.8676 81.2801 62.7604 81.1224 61.7233 80.7386C60.6862 80.3548 59.743 79.7537 58.9571 78.9758V89.4987H48.2536V74.3355C47.8387 74.3626 47.4667 74.437 47.0248 74.437C42.3348 74.437 38.9481 73.2743 36.8647 70.9489C34.7812 68.6235 33.738 64.8754 33.735 59.7045V54.6539H43.8816V61.0889C43.8816 63.6548 44.7031 64.937 46.3461 64.9355C46.7012 64.9724 47.06 64.9201 47.3899 64.7835C47.7198 64.6469 48.0104 64.4303 48.2356 64.1531V57.3145C48.2356 57.2829 48.2221 57.2401 48.2131 57.2085C47.8649 56.2046 47.3453 55.2685 46.6776 54.4419C46.0552 53.7009 44.9428 52.548 43.3404 50.9832L38.8895 46.5346C37.3021 45.1281 36.0232 43.4081 35.1334 41.4829C34.2435 39.5578 33.762 37.4692 33.7192 35.3488C33.4667 31.7338 34.5471 28.1516 36.7564 25.2791C37.8885 24.0849 39.2705 23.1556 40.8035 22.5576C42.3366 21.9597 43.9828 21.7079 45.6245 21.8203C50.2739 21.8203 53.6216 23.0529 55.6674 25.5181C57.7132 27.9833 58.7354 31.8419 58.7339 37.094H58.7113L58.7768 39.2202C59.5571 38.2609 60.546 37.4922 61.6681 36.9726C62.7903 36.4529 64.0161 36.196 65.2525 36.2214C66.6407 36.0799 68.041 36.3252 69.2985 36.93C70.556 37.5349 71.6216 38.4758 72.3776 39.6486C73.8702 42.5837 74.5653 45.8595 74.3934 49.1478V65.4428L74.3979 65.4451Z" fill="white"/>
</svg>
