<svg width="153" height="80" viewBox="0 0 153 80" fill="none" xmlns="http://www.w3.org/2000/svg">
<path fill-rule="evenodd" clip-rule="evenodd" d="M127.933 54.6755L120.707 53.7053L117.832 45.6396L113.843 45.1496L102.313 27.5874L81.2293 49.3588L72.3009 29.8562L67.3215 31.4399L47.3592 0.0240479L37.2702 28.5331L20.5382 46.9333L-0.0078125 79.9995H153.01L127.933 54.6755ZM52.7436 55.6948V42.5721L37.6257 60.8595L34.6149 52.4802L24.6115 75.9029L8.19213 75.9716L25.4642 49.0403L41.2095 32.9021L48.4751 11.6031V36.9957L58.0775 31.6056L52.7436 55.6948ZM100.115 58.7035L97.6874 55.4693L81.2254 78.0591L88.4492 59.8403L69.7408 75.6579L83.7816 51.6178L102.804 33.3774L97.5087 45.963L103.791 43.8756L100.115 58.7035Z" fill="#FFE500"/>
</svg>
